<svg xmlns="http://www.w3.org/2000/svg" width="114.97" height="118.16" viewBox="0 0 114.97 118.16"><path fill="#2e001e" d="M4.79 5.05h105.389v108.065H4.79z"/><path fill="#ff2bc2" d="M0 0v118.164h114.969V0zm4.79 5.05h105.389v108.065H4.79z"/><path fill="#ff2bc2" d="M83.496 49.639a6.28 6.28 0 0 0-2.778-.5c-6.036 0-10.06 4.9-10.06 13.028 0 9.292 4.12 13.028 9.485 13.028a8.618 8.618 0 0 0 3.305-.555v-25zM62.035 62.566c0-11.766 7.186-20.956 18.97-20.956a20.16 20.16 0 0 1 2.491.1V28.581a.493.493 0 0 1 .479-.5h7.713c.383 0 .479.151.479.4v46.155a37.9 37.9 0 0 0 .24 4.949c0 .353 0 .4-.287.555a27.32 27.32 0 0 1-12.263 2.929c-10.4 0-17.82-6.767-17.82-20.5zM45.7 54.386l13.413 27.42c.24.4.1.808-.287.808H50.49a.938.938 0 0 1-1.006-.656q-4.6-10-9.389-20.754h-.1c-2.874 6.767-6.036 14.139-9.1 20.805a.915.915 0 0 1-.862.555h-7.95c-.479 0-.527-.4-.287-.707l13.126-26.613-12.695-26.461a.448.448 0 0 1 .335-.757h8.239c.479 0 .719.1.862.555 3.018 6.716 6.084 13.331 8.958 20.1h.1c2.778-6.666 5.844-13.382 8.766-20 .24-.4.383-.656.862-.656h7.71c.383 0 .527.3.287.757z"/></svg>