<svg xmlns="http://www.w3.org/2000/svg" width="117.4" height="123.76" viewBox="0 0 117.4 123.76"><path fill="#563d7c" d="M0 107.8c0 8.814 6.778 15.958 15.138 15.958h87.125c8.362 0 15.138-7.145 15.138-15.958V15.958C117.4 7.144 110.624 0 102.264 0H15.138C6.777 0 0 7.145 0 15.958V107.8z"/><path fill="#fff" d="M48.684 54.742V37.213h14.635a21.626 21.626 0 0 1 4.032.367 9.741 9.741 0 0 1 3.435 1.312 6.847 6.847 0 0 1 2.389 2.624 9.1 9.1 0 0 1 .9 4.3q0 4.723-2.688 6.822a10.828 10.828 0 0 1-6.869 2.1zm-15.63-30.329v74.932H67.5a34.585 34.585 0 0 0 9.309-1.259 24.318 24.318 0 0 0 8.064-3.883 18.856 18.856 0 0 0 5.625-6.769 21.544 21.544 0 0 0 2.091-9.813 21.592 21.592 0 0 0-3.235-12.016 17.094 17.094 0 0 0-9.807-6.979 17.954 17.954 0 0 0 7.218-6.192 17.083 17.083 0 0 0 2.439-9.445 21.038 21.038 0 0 0-1.643-8.815 14.223 14.223 0 0 0-4.63-5.719 19.43 19.43 0 0 0-7.168-3.1 42.06 42.06 0 0 0-9.259-.945h-33.45zm15.63 62.128V65.972h17.024a12.691 12.691 0 0 1 8.164 2.466q3.086 2.466 3.086 8.238a10.771 10.771 0 0 1-.946 4.828 7.793 7.793 0 0 1-2.539 2.991 10.449 10.449 0 0 1-3.683 1.575 19.866 19.866 0 0 1-4.381.472z"/></svg>