<svg xmlns="http://www.w3.org/2000/svg" width="582.43" height="176.67" viewBox="0 0 582.43 176.67"><g fill="#343434"><g transform="translate(0 9.937)"><ellipse cx="18.75" cy="19.77" rx="18.75" ry="19.77" transform="translate(58.072 63.598)"/><path d="M.226 62.407c0 .238-.226.714-.226.953a3.918 3.918 0 0 0 3.841 4.049h31.86a3.7 3.7 0 0 0 3.389-2.382C45.644 49.782 60.106 39.54 76.6 39.54c22.822 0 41.351 19.532 41.351 43.59S99.422 126.72 76.6 126.72c-16.721 0-30.956-10.48-37.509-25.249a3.612 3.612 0 0 0-3.39-2.62H3.842A3.914 3.914 0 0 0 .001 102.9a1.492 1.492 0 0 0 .226.953c8.812 36.205 39.769 62.883 76.6 62.883 43.61 0 79.086-37.4 79.086-83.368S120.436 0 76.826 0C39.995 0 9.039 26.678.226 62.407z"/></g><text stroke="#c4bfbf" font-family="HelveticaNeue, Helvetica Neue" font-size="130" transform="translate(164.427 128)"><tspan x="0" y="0">circle</tspan><tspan y="0" font-family="HelveticaNeue-Bold, Helvetica Neue" font-weight="700">ci</tspan></text></g></svg>