<svg xmlns="http://www.w3.org/2000/svg" width="142.87" height="126.36" viewBox="0 0 142.87 126.36"><path fill="#364548" fill-rule="evenodd" d="M21.579 102.485v-9.638a2.062 2.062 0 0 1 1.995-2.284h.348a2.06 2.06 0 0 1 1.991 2.284v20.291a12.913 12.913 0 0 1-6.36 11.393 11.481 11.481 0 0 1-6.116 1.758h-.859c-4.695 0-8.425-2.446-10.808-6.7a13.077 13.077 0 0 1-1.667-6.448v-.9a12.928 12.928 0 0 1 6.358-11.4 11.44 11.44 0 0 1 6.118-1.758h.859a11.758 11.758 0 0 1 8.146 3.407zm-17.151 10.2a8.735 8.735 0 0 0 4.615 7.976 7.691 7.691 0 0 0 3.879 1.065 8.284 8.284 0 0 0 7.5-4.628 9.1 9.1 0 0 0-2.6-11.817 7.8 7.8 0 0 0-4.816-1.635c-3.628 0-6.238 1.932-7.805 5.364a8.765 8.765 0 0 0-.774 3.675zm36.5-13.607h.6c5.017 0 8.832 2.565 11.25 7.182a12.792 12.792 0 0 1 1.484 5.974v.9a12.9 12.9 0 0 1-6.362 11.394 11.508 11.508 0 0 1-6.115 1.758h-.858c-4.695 0-8.426-2.446-10.808-6.7a13.078 13.078 0 0 1-1.669-6.448v-.9a12.959 12.959 0 0 1 6.357-11.4 11.388 11.388 0 0 1 6.12-1.759zm-8.147 13.607a8.871 8.871 0 0 0 4.395 7.817 7.715 7.715 0 0 0 4.268 1.224c3.252 0 5.656-1.738 7.329-4.632a9.1 9.1 0 0 0-2.835-11.978 7.763 7.763 0 0 0-4.581-1.47c-3.628 0-6.238 1.932-7.8 5.364a8.749 8.749 0 0 0-.771 3.676zm39.482-8.675a7.729 7.729 0 0 0-2.584-.458c-3.618-.144-6.235 2-7.771 5.368a8.726 8.726 0 0 0-.772 3.673 8.824 8.824 0 0 0 5.258 8.316 9.411 9.411 0 0 0 4.092.725 10.337 10.337 0 0 0 3.837-1.267l.179-.09h.8l.088.019a1.987 1.987 0 0 1 1.728 1.991v.452c0 2.779-4.818 3.415-6.656 3.551-6.488.473-11.34-3.283-13.189-9.806a12.416 12.416 0 0 1-.466-3.438v-.9a12.951 12.951 0 0 1 6.357-11.392 11.393 11.393 0 0 1 6.119-1.761h.858a10.633 10.633 0 0 1 6.339 2.063l.156.114.1.172a2.492 2.492 0 0 1 .383 1.2v.452a2.017 2.017 0 0 1-1.825 1.995l-.083.015h-.256a9.428 9.428 0 0 1-2.692-.991zm14.047 3.09a470.422 470.422 0 0 1 5.077-5.293c.476-.487 2.277-2.549 2.986-2.549h.776l.088.019a1.986 1.986 0 0 1 1.728 1.995v.451c0 .763-.848 1.651-1.316 2.173-.995 1.112-2.042 2.187-3.06 3.275l-5.231 5.6q3.379 3.57 6.737 7.159.929.993 1.845 2a4.936 4.936 0 0 1 .713.866 1.94 1.94 0 0 1 .313 1.032v.471l-.025.109c-.243 1.041-.87 1.881-1.965 1.881h-.345c-.716 0-1.526-.854-2.016-1.342-1.011-1-1.988-2.062-2.979-3.088l-3.324-3.44v5.5a2.063 2.063 0 0 1-1.994 2.284h-.341a2.063 2.063 0 0 1-1.995-2.284V92.935a2.059 2.059 0 0 1 1.995-2.28h.341a2.059 2.059 0 0 1 1.994 2.28zm53.967-7.842h.43a2.109 2.109 0 0 1 2.165 2.284c0 1.89-1.714 2.373-3.2 2.373a7.629 7.629 0 0 0-5.142 2.633 8.946 8.946 0 0 0-2.4 6.408v11.05a2.061 2.061 0 0 1-1.995 2.283h-.342a2.061 2.061 0 0 1-1.994-2.283v-11.684a13.014 13.014 0 0 1 5.523-10.722 11.5 11.5 0 0 1 6.95-2.344zm-30.775 21.9a9.629 9.629 0 0 0 4.989.2c.827-.371 2.941-1.343 3.719-1.2l.121.022.112.058a2.489 2.489 0 0 1 1.171 1.1 2.248 2.248 0 0 1-.819 3.072l-.37.226c-4.107 2.5-8.476 2.152-12.57-.181a11.987 11.987 0 0 1-4.56-4.79l-.258-.472a13.483 13.483 0 0 1 .693-14.455 12.1 12.1 0 0 1 3.937-3.76l.593-.361c3.868-2.354 8.014-2.192 11.986-.127a11.992 11.992 0 0 1 5.059 4.944l.215.392c.866 1.582-.256 2.961-1.414 3.9-1.344 1.093-2.7 2.409-3.99 3.581q-4.31 3.922-8.613 7.852zm-3.719-2.753q4.82-4.356 9.632-8.727c1.1-1 2.3-2.029 3.382-3.075a8.538 8.538 0 0 0-3.565-2.49 7.81 7.81 0 0 0-7.251.727c-3 1.825-4.275 4.731-4.163 8.347a8.331 8.331 0 0 0 1.125 4.008 10.546 10.546 0 0 0 .84 1.205zM82.415 26.938h12.777v13.769h6.46a26.718 26.718 0 0 0 8.878-1.569 22.182 22.182 0 0 0 4.316-2.056 17.459 17.459 0 0 1-3-8.706c-.369-4.2.436-9.673 3.134-12.962l1.343-1.638 1.6 1.357c4.029 3.412 7.419 8.181 8.016 13.618A18.63 18.63 0 0 1 140.77 30.2l1.755 1.067-.923 1.9c-3.617 7.441-11.179 9.746-18.572 9.338-11.062 29.045-35.147 42.8-64.349 42.8-15.087 0-28.929-5.945-36.811-20.055l-.129-.23-1.149-2.462a40.966 40.966 0 0 1-2.95-19.814l.18-2.036H28.75v-13.77h12.772V13.469h25.56V0h15.333v26.938"/><path fill="#22a0c8" fill-rule="evenodd" d="M123.812 32.033c.857-7.019-4.126-12.532-7.216-15.15-3.561 4.34-4.114 15.715 1.472 20.5-3.118 2.919-9.688 5.565-16.415 5.565H19.765a38.09 38.09 0 0 0 3.395 20.054l.932 1.8a33.5 33.5 0 0 0 1.931 3.054q5.05.342 9.311.24a43.49 43.49 0 0 0 13.585-2.085.974.974 0 0 1 1.222.651 1.054 1.054 0 0 1-.578 1.308c-.459.168-.938.325-1.432.474a40.718 40.718 0 0 1-9.391 1.613c.224 0-.232.035-.234.035-.128.009-.289.028-.417.035-1.48.088-3.077.106-4.71.106-1.786 0-3.544-.035-5.511-.141l-.05.035c6.822 8.085 17.49 12.934 30.863 12.934 28.3 0 52.308-13.225 62.938-42.916 7.541.816 14.79-1.212 18.086-8-5.252-3.194-12.005-2.176-15.894-.115"/><path fill="#37b1d9" fill-rule="evenodd" d="M123.812 32.033c.857-7.019-4.126-12.532-7.216-15.15-3.561 4.34-4.114 15.715 1.472 20.5-3.118 2.919-9.688 5.565-16.415 5.565H24.614c-.333 11.341 3.656 19.946 10.717 25.149a43.49 43.49 0 0 0 13.585-2.085.974.974 0 0 1 1.222.651 1.054 1.054 0 0 1-.578 1.308c-.459.168-.938.325-1.432.474a42.816 42.816 0 0 1-9.641 1.684l-.092-.091c9.632 5.208 23.6 5.19 39.61-1.294 17.954-7.271 34.661-21.123 46.318-36.967q-.263.125-.512.257"/><path fill="#1b81a5" fill-rule="evenodd" d="M19.918 51.946a35.873 35.873 0 0 0 3.241 11.06l.932 1.8a33.435 33.435 0 0 0 1.931 3.054q5.051.342 9.312.24a43.49 43.49 0 0 0 13.585-2.085.974.974 0 0 1 1.222.651 1.054 1.054 0 0 1-.578 1.308c-.459.168-.938.325-1.432.474a42.822 42.822 0 0 1-9.625 1.649c-.129.008-.354.01-.484.018a80.175 80.175 0 0 1-4.693.141c-1.785 0-3.611-.036-5.577-.141 6.823 8.084 17.557 12.95 30.93 12.95 24.229 0 45.309-9.695 57.544-31.115H19.918"/><path fill="#1d91b4" fill-rule="evenodd" d="M25.351 51.946a26.058 26.058 0 0 0 9.982 16.151 43.49 43.49 0 0 0 13.585-2.085.974.974 0 0 1 1.222.651 1.054 1.054 0 0 1-.578 1.308c-.459.168-.938.325-1.432.474a43.461 43.461 0 0 1-9.692 1.649c9.631 5.207 23.557 5.132 39.568-1.351a103.445 103.445 0 0 0 27.372-16.8H25.351"/><path fill="#23a3c2" fill-rule="evenodd" d="M30.879 29.183h11.074v11.674H30.879zm.923.973h.874v9.728h-.874zm1.643 0h.909v9.728h-.909v-9.728zm1.677 0h.909v9.728h-.912zm1.679 0h.909v9.728h-.909zm1.678 0h.909v9.728h-.909zm1.677 0h.875v9.728h-.875zm3.5-14.442h11.075v11.673H43.656V15.714zm.923.973h.873v9.728h-.873zm1.643 0h.909v9.728h-.912v-9.728zm1.677 0h.909v9.728h-.909zm1.678 0h.909v9.728h-.909zm1.678 0h.909v9.728h-.909zm1.677 0h.875v9.728h-.875z"/><path fill="#34bbde" fill-rule="evenodd" d="M43.657 29.183h11.074v11.674H43.656V29.183zm.923.973h.873v9.728h-.873zm1.643 0h.908v9.728h-.908v-9.728zm1.677 0h.909v9.728H47.9zm1.678 0h.909v9.728h-.909zm1.678 0h.909v9.728h-.909zm1.677 0h.875v9.728h-.877z"/><path fill="#23a3c2" fill-rule="evenodd" d="M56.434 29.183h11.074v11.674H56.434zm.923.973h.873v9.728h-.873zm1.643 0h.909v9.728H59zm1.678 0h.909v9.728h-.909zm1.678 0h.909v9.728h-.909zm1.678 0h.91v9.728h-.91zm1.678 0h.874v9.728h-.874z"/><path fill="#34bbde" fill-rule="evenodd" d="M56.434 15.714h11.074v11.673H56.434zm.923.973h.873v9.728h-.873zm1.643 0h.909v9.728H59zm1.678 0h.909v9.728h-.909zm1.678 0h.909v9.728h-.909zm1.678 0h.91v9.728h-.91zm1.678 0h.874v9.728h-.874zm3.5 12.5h11.074v11.67H69.211zm.923.973h.873v9.728h-.873zm1.643 0h.909v9.728h-.909zm1.677 0h.909v9.728h-.909zm1.678 0h.909v9.728h-.909zm1.678 0h.909v9.728h-.909zm1.678 0h.874v9.728h-.874z"/><path fill="#23a3c2" fill-rule="evenodd" d="M69.212 15.714h11.074v11.673H69.212zm.923.973h.873v9.728h-.873zm1.643 0h.909v9.728h-.909zm1.678 0h.909v9.728h-.912zm1.678 0h.909v9.728h-.909zm1.678 0h.909v9.728h-.909zm1.678 0h.874v9.728h-.874z"/><path fill="#34bbde" fill-rule="evenodd" d="M69.212 2.244h11.074v11.675H69.212zm.923.973h.873v9.729h-.873v-9.73zm1.643 0h.909v9.729h-.909v-9.73zm1.678 0h.909v9.729h-.912v-9.73zm1.678 0h.909v9.729h-.909v-9.73zm1.678 0h.909v9.729h-.909v-9.73zm1.678 0h.874v9.729h-.874v-9.73z"/><path fill="#23a3c2" fill-rule="evenodd" d="M81.989 29.183h11.075v11.674H81.989zm.922.973h.875v9.728h-.874v-9.728zm1.643 0h.909v9.728h-.909v-9.728zm1.679 0h.909v9.728h-.909zm1.677 0h.909v9.728h-.909zm1.679 0h.909v9.728h-.909zm1.677 0h.874v9.728h-.876z"/><path fill="#d3ecec" fill-rule="evenodd" d="M54.037 59.784a3.225 3.225 0 1 1-3.056 3.221 3.141 3.141 0 0 1 3.056-3.221"/><path fill="#364548" fill-rule="evenodd" d="M54.038 60.697a2.081 2.081 0 0 1 .792.156.963.963 0 0 0-.414 1.058.9.9 0 0 0 .86.7.886.886 0 0 0 .783-.489 2.388 2.388 0 0 1-.632 2.666 2.1 2.1 0 0 1-2.6.136 2.371 2.371 0 0 1-.879-2.587 2.205 2.205 0 0 1 2.093-1.638M0 53.109h142.116c-3.094-.827-9.79-1.945-8.686-6.22-5.627 6.864-19.2 4.815-22.621 1.431-3.809 5.831-26.009 3.614-27.562-.928-4.781 5.915-19.6 5.915-24.376 0-1.55 4.542-23.75 6.759-27.564.928-3.424 3.385-16.993 5.433-22.62-1.43C9.791 51.164 3.1 52.287 0 53.11"/><path fill="#bdd9d7" fill-rule="evenodd" d="M62.158 82.991c-7.566-3.785-11.718-8.93-14.029-14.546a44.649 44.649 0 0 1-10.114 1.618q-2.218.131-4.666.132-2.823 0-5.947-.175c6.939 7.31 15.474 12.938 31.279 13.04q1.75 0 3.477-.07"/><path fill="#d3ecec" fill-rule="evenodd" d="M50.939 73.628a28.384 28.384 0 0 1-2.808-5.184 44.62 44.62 0 0 1-10.116 1.62c2.7 1.543 6.553 2.972 12.925 3.564"/></svg>