<svg xmlns="http://www.w3.org/2000/svg" width="402.43" height="87.44" viewBox="0 0 402.43 87.44"><path fill="#222" d="M2.086 68.182v-33.6h44.531v-1.965H2.086V1.965h47.346V0H0v70.147h49.849v-1.965H2.086zM90 19.649L71.542 42.54 53.5 19.649h-2.712l19.5 24.365L48.91 70.146h2.5l20.127-24.66 20.232 24.66h2.611L72.9 44.013l19.6-24.365H90zm10.637 67.79V56h.208a20.078 20.078 0 0 0 7.4 11.053q5.527 4.175 14.078 4.175a21.855 21.855 0 0 0 9.8-2.112 20.574 20.574 0 0 0 7.144-5.747 26.153 26.153 0 0 0 4.38-8.449 33.577 33.577 0 0 0 1.522-10.12 33.848 33.848 0 0 0-1.569-10.512 24.669 24.669 0 0 0-4.536-8.351 20.661 20.661 0 0 0-7.2-5.5 22.358 22.358 0 0 0-9.542-1.965 24.446 24.446 0 0 0-7.561 1.13 20.643 20.643 0 0 0-6.2 3.193 22.151 22.151 0 0 0-4.693 4.863 21.823 21.823 0 0 0-3.025 6.141h-.208v-14.15h-2.082v67.79h2.086zm21.693-18.078q-9.8 0-15.747-6.337T100.638 44.8a29.57 29.57 0 0 1 1.46-9.333 23.7 23.7 0 0 1 4.223-7.761 20.068 20.068 0 0 1 6.831-5.305 20.828 20.828 0 0 1 9.177-1.965 20.074 20.074 0 0 1 9.125 1.965 18.2 18.2 0 0 1 6.466 5.354 24.313 24.313 0 0 1 3.859 7.761 32.34 32.34 0 0 1 1.3 9.284 33.081 33.081 0 0 1-1.2 8.793 24.443 24.443 0 0 1-3.7 7.86 19.708 19.708 0 0 1-6.413 5.7 18.9 18.9 0 0 1-9.438 2.21zm34.311.786V41.558a26.369 26.369 0 0 1 1.252-8.056 19.37 19.37 0 0 1 3.858-6.926 18.015 18.015 0 0 1 6.622-4.716 21.208 21.208 0 0 1 9.542-1.425V18.47a27.334 27.334 0 0 0-8.4.982 20.888 20.888 0 0 0-6.206 2.948 15.4 15.4 0 0 0-4.171 4.372 18.916 18.916 0 0 0-2.295 5.354h-.208V19.649h-2.086v50.5h2.086zm23.882-24.856h44.844a33.028 33.028 0 0 0-1.095-10.021 24.284 24.284 0 0 0-4.171-8.547 20.938 20.938 0 0 0-7.4-5.993 23.961 23.961 0 0 0-10.801-2.26 22.716 22.716 0 0 0-8.761 1.769 21.771 21.771 0 0 0-7.509 5.157 25.9 25.9 0 0 0-5.214 8.3 29.742 29.742 0 0 0-1.982 11.2 38.824 38.824 0 0 0 1.356 10.463 23.9 23.9 0 0 0 4.171 8.449 18.645 18.645 0 0 0 7.248 5.551 25.272 25.272 0 0 0 10.69 1.867q9.177 0 15.434-4.863t7.4-13.706h-2.086q-1.356 8.351-6.935 12.526t-14.027 4.175a22.664 22.664 0 0 1-9.7-1.866 17.359 17.359 0 0 1-6.466-5.109 21.708 21.708 0 0 1-3.7-7.614 38.724 38.724 0 0 1-1.3-9.481zm42.758-1.965h-42.758a28.86 28.86 0 0 1 2.085-9.53 23.418 23.418 0 0 1 4.641-7.221 19.393 19.393 0 0 1 6.674-4.569 21.237 21.237 0 0 1 8.187-1.572 21.809 21.809 0 0 1 9.177 1.818 18.813 18.813 0 0 1 6.622 4.961 21.462 21.462 0 0 1 4.015 7.319 28.3 28.3 0 0 1 1.356 8.793zm45.366-8.744h2.086q0-8.45-5.214-12.281t-14.184-3.831a26.285 26.285 0 0 0-8.448 1.179 17.164 17.164 0 0 0-5.632 3.045 11 11 0 0 0-3.128 4.126 11.262 11.262 0 0 0-.939 4.323 12.128 12.128 0 0 0 1.565 6.582 10.168 10.168 0 0 0 4.9 3.832 39.29 39.29 0 0 0 5.215 1.769q2.92.785 6.779 1.669 3.441.787 6.779 1.572a25.427 25.427 0 0 1 5.892 2.112 12.552 12.552 0 0 1 4.172 3.39 8.512 8.512 0 0 1 1.616 5.4 9.2 9.2 0 0 1-1.616 5.5 12.736 12.736 0 0 1-4.119 3.685 19.026 19.026 0 0 1-5.58 2.063 29.47 29.47 0 0 1-6 .639q-9.49 0-14.549-3.978t-5.058-12.527H231.1q0 9.53 5.475 13.951t16.217 4.421a33.541 33.541 0 0 0 6.935-.737 19.949 19.949 0 0 0 6.257-2.407 13.732 13.732 0 0 0 4.484-4.322 11.666 11.666 0 0 0 1.721-6.485 10.419 10.419 0 0 0-1.512-5.895 12.345 12.345 0 0 0-3.963-3.733 21.684 21.684 0 0 0-5.527-2.309q-3.094-.84-6.205-1.622-3.829-.946-7.665-1.866a48.6 48.6 0 0 1-6.1-1.867 10.306 10.306 0 0 1-4.328-3.095 8.981 8.981 0 0 1-1.616-5.747 12.815 12.815 0 0 1 .417-2.456 8.638 8.638 0 0 1 1.982-3.586 13.335 13.335 0 0 1 4.8-3.242 22.467 22.467 0 0 1 8.864-1.425 29.368 29.368 0 0 1 7.039.786 15.02 15.02 0 0 1 5.475 2.505 11.507 11.507 0 0 1 3.546 4.372 15.128 15.128 0 0 1 1.252 6.485zm48.285 0h2.086q0-8.45-5.214-12.281T299.62 18.47a26.281 26.281 0 0 0-8.447 1.179 17.152 17.152 0 0 0-5.632 3.045 10.992 10.992 0 0 0-3.129 4.126 11.26 11.26 0 0 0-.938 4.323 12.129 12.129 0 0 0 1.565 6.582 10.165 10.165 0 0 0 4.9 3.832 39.31 39.31 0 0 0 5.214 1.769q2.92.785 6.779 1.669 3.442.787 6.779 1.572a25.432 25.432 0 0 1 5.889 2.113 12.55 12.55 0 0 1 4.171 3.39 8.509 8.509 0 0 1 1.617 5.4 9.2 9.2 0 0 1-1.617 5.5 12.736 12.736 0 0 1-4.119 3.685 19.028 19.028 0 0 1-5.58 2.063 29.465 29.465 0 0 1-6 .639q-9.49 0-14.548-3.978t-5.058-12.527h-2.086q0 9.53 5.475 13.951t16.217 4.421a33.533 33.533 0 0 0 6.935-.737 19.959 19.959 0 0 0 6.257-2.407 13.733 13.733 0 0 0 4.484-4.322 11.666 11.666 0 0 0 1.721-6.485 10.414 10.414 0 0 0-1.512-5.895A12.336 12.336 0 0 0 315 47.649a21.693 21.693 0 0 0-5.527-2.309q-3.094-.84-6.206-1.622-3.829-.946-7.665-1.866a48.575 48.575 0 0 1-6.1-1.867 10.3 10.3 0 0 1-4.328-3.095 8.981 8.981 0 0 1-1.617-5.747 12.78 12.78 0 0 1 .417-2.456 8.643 8.643 0 0 1 1.981-3.586 13.341 13.341 0 0 1 4.8-3.242 22.47 22.47 0 0 1 8.865-1.425 29.368 29.368 0 0 1 7.039.786 15.025 15.025 0 0 1 5.475 2.505 11.507 11.507 0 0 1 3.546 4.375 15.128 15.128 0 0 1 1.252 6.485z"/><path fill="#ffa964" stroke="#c4bfbf" d="M358.708 55.684V22.06h-5.959v32.746a10.105 10.105 0 0 1-1.537 5.9q-1.537 2.2-5.614 2.2a8.555 8.555 0 0 1-3.607-.659 5.176 5.176 0 0 1-2.2-1.851 7.738 7.738 0 0 1-1.1-2.823 18.967 18.967 0 0 1-.303-3.582v-1.882h-5.964v2.76q0 6.4 3.387 9.692t9.661 3.293a16.778 16.778 0 0 0 6.3-1.035 10.81 10.81 0 0 0 4.078-2.76 10.26 10.26 0 0 0 2.2-3.921 15.421 15.421 0 0 0 .658-4.454zm35.694-20.513h5.646a15.789 15.789 0 0 0-1.411-6.367 12.406 12.406 0 0 0-3.513-4.423 14.49 14.49 0 0 0-5.175-2.572 23.933 23.933 0 0 0-6.4-.816 22.976 22.976 0 0 0-5.991.784 16.472 16.472 0 0 0-5.207 2.384 12.065 12.065 0 0 0-3.67 4.078 11.868 11.868 0 0 0-1.38 5.865 9.794 9.794 0 0 0 1.225 5.118 9.917 9.917 0 0 0 3.262 3.32 18.958 18.958 0 0 0 4.611 2.07q2.572.784 5.238 1.38t5.238 1.161a23.88 23.88 0 0 1 4.613 1.474 8.99 8.99 0 0 1 3.262 2.352 5.621 5.621 0 0 1 1.223 3.764 7.326 7.326 0 0 1-1 4.015 7.3 7.3 0 0 1-2.635 2.478 11.921 11.921 0 0 1-3.67 1.286 22.248 22.248 0 0 1-4.046.376 19.146 19.146 0 0 1-4.893-.627 12.176 12.176 0 0 1-4.177-1.949 9.982 9.982 0 0 1-2.886-3.356 10.117 10.117 0 0 1-1.1-4.862h-5.644a15.75 15.75 0 0 0 1.474 7.057 13.531 13.531 0 0 0 4.015 4.893 17.584 17.584 0 0 0 5.9 2.854 26.262 26.262 0 0 0 7.12.941 27.23 27.23 0 0 0 6.179-.721 17.881 17.881 0 0 0 5.614-2.321 13.165 13.165 0 0 0 4.109-4.14 11.247 11.247 0 0 0 1.6-6.116 11.233 11.233 0 0 0-1.223-5.52 10.9 10.9 0 0 0-3.262-3.638 17.277 17.277 0 0 0-4.611-2.29q-2.572-.847-5.238-1.474t-5.241-1.157a27.429 27.429 0 0 1-4.611-1.35 9.07 9.07 0 0 1-3.259-2.1 4.669 4.669 0 0 1-1.223-3.356 7.274 7.274 0 0 1 .847-3.67 6.586 6.586 0 0 1 2.258-2.352 9.828 9.828 0 0 1 3.231-1.255 18.22 18.22 0 0 1 3.7-.376 12.646 12.646 0 0 1 7.622 2.164q2.978 2.164 3.479 6.994z"/></svg>