<svg xmlns="http://www.w3.org/2000/svg" width="289" height="113.81" viewBox="0 0 289 113.81"><path fill="#2f2707" d="M173.199 38.737c-6.337 0-11.055 2.933-11.055 9.993 0 5.319 3.11 9.012 10.713 9.012 6.445 0 10.823-3.581 10.823-9.233 0-6.4-3.917-9.772-10.481-9.772zm-12.67 49.85c-1.5 1.735-2.995 3.579-2.995 5.753 0 4.341 5.871 5.648 13.937 5.648 6.68 0 15.78-.442 15.78-6.3 0-3.481-4.378-3.7-9.91-4.022zm34.092-49.521a16.669 16.669 0 0 1 4.261 10.969c0 12.053-10.02 19.111-24.53 19.111a38.733 38.733 0 0 1-9.1-.976l-3.8 5.753 11.286.651c19.928 1.2 31.671 1.742 31.671 16.179 0 12.491-11.629 19.545-31.671 19.545-20.846 0-28.794-5-28.794-13.573 0-4.887 2.3-7.488 6.335-11.078-3.8-1.515-5.067-4.228-5.067-7.162 0-2.391 1.266-4.561 3.342-6.626s4.375-4.126 7.139-6.514c-5.643-2.607-9.906-8.253-9.906-16.291 0-12.485 8.755-21.061 26.373-21.061a41.745 41.745 0 0 1 10.597 1.084h22.462v9.227l-10.6.761zm30.861-19.733c-6.566 0-10.367-3.586-10.367-9.779s3.8-9.553 10.367-9.553c6.68 0 10.481 3.37 10.481 9.553s-3.801 9.778-10.482 9.778zm-14.86 65.258v-8.575l5.876-.758c1.613-.219 1.842-.543 1.842-2.175V41.156c0-1.191-.344-1.955-1.5-2.278l-6.218-2.065 1.266-8.793h23.844v45.062c0 1.74.111 1.957 1.844 2.176l5.874.758v8.573zm78.377-4.214a48.325 48.325 0 0 1-18.778 4.342c-13.706 0-18.886-5.207-18.886-17.484V38.791c0-.651 0-1.086-.925-1.086h-8.061v-9.667c10.138-1.089 14.166-5.866 15.433-17.7h10.943v15.421c0 .758 0 1.086.923 1.086h16.238v10.858h-17.164v25.952c0 6.407 1.614 8.9 7.831 8.9a28.865 28.865 0 0 0 9.329-1.736l3.117 9.558"/><path fill="#de4c36" d="M118.339 51.883L65.677 2.235a8.1 8.1 0 0 0-10.985 0L43.757 12.547l13.872 13.078a9.622 9.622 0 0 1 9.491 2.085 8.356 8.356 0 0 1 2.192 9l13.366 12.607a9.634 9.634 0 0 1 9.55 2.069 8.364 8.364 0 0 1 0 12.323 9.666 9.666 0 0 1-11.665 1.092 8.443 8.443 0 0 1-3.42-10.571L64.676 42.476v30.933a9.348 9.348 0 0 1 2.444 1.648 8.367 8.367 0 0 1 0 12.325 9.639 9.639 0 0 1-13.07 0 8.4 8.4 0 0 1-2.529-7.877 8.856 8.856 0 0 1 5.554-6.349V41.935a9.186 9.186 0 0 1-3.025-1.9 8.351 8.351 0 0 1-1.991-9.527L38.384 17.612 2.276 51.653a7.033 7.033 0 0 0 0 10.36l52.662 49.65a8.106 8.106 0 0 0 10.985 0l52.416-49.418a7.036 7.036 0 0 0 0-10.361"/></svg>