<svg xmlns="http://www.w3.org/2000/svg" width="182.79" height="45.98" viewBox="0 0 182.79 45.98"><path fill="#121110" d="M35.206 19.682h-15.36a.7.7 0 0 0-.718.668v6.988a.7.7 0 0 0 .718.669h5.992v8.679a19.428 19.428 0 0 1-5.065.427c-4.388 0-10.519-1.492-10.519-14.033S16.638 8.886 22.631 8.886a25.948 25.948 0 0 1 8.845 1.259.71.71 0 0 0 .86-.655l1.714-6.75a.608.608 0 0 0-.274-.522c-.577-.383-4.1-2.217-13-2.217C10.522.001.004 4.06.004 23.569s12.043 22.417 22.191 22.417c8.4 0 13.5-3.34 13.5-3.34a.556.556 0 0 0 .233-.507V20.35a.694.694 0 0 0-.717-.667m79.16-17.345a.642.642 0 0 0-.206-.473.743.743 0 0 0-.506-.2h-8.649a.7.7 0 0 0-.716.671v15.548H90.809V2.338a.643.643 0 0 0-.207-.473.744.744 0 0 0-.507-.2h-8.648a.694.694 0 0 0-.714.671v42.1a.7.7 0 0 0 .714.673h8.648a.694.694 0 0 0 .714-.673V26.43h13.481l-.024 18.008a.7.7 0 0 0 .717.673h8.669a.694.694 0 0 0 .714-.673v-42.1M51.522 7.863a5.587 5.587 0 1 0-5.577 5.241 5.413 5.413 0 0 0 5.577-5.241m-.619 27.695V16.124a.7.7 0 0 0-.716-.671h-8.616a.793.793 0 0 0-.749.749v27.842c0 .819.548 1.062 1.258 1.062h7.768c.852 0 1.061-.389 1.061-1.074v-8.474m96.327-20.041h-8.584a.7.7 0 0 0-.714.673v20.643a10.176 10.176 0 0 1-5.275 1.484c-3.094 0-3.915-1.306-3.915-4.125v-18a.7.7 0 0 0-.714-.673h-8.712a.7.7 0 0 0-.715.673v19.365c0 8.372 5.016 10.421 11.917 10.421a21.119 21.119 0 0 0 10.225-2.909 15.821 15.821 0 0 0 .316 1.715.763.763 0 0 0 .631.364l5.542-.023a.7.7 0 0 0 .715-.672V16.192a.7.7 0 0 0-.716-.673m20.072 22.775a10.824 10.824 0 0 1-5-1.341V23.618a12.006 12.006 0 0 1 4.436-1.339c3.091-.257 6.069.611 6.069 7.469.001 7.232-1.343 8.66-5.508 8.543zm3.385-23.72a17.014 17.014 0 0 0-8.19 2.023V2.338a.693.693 0 0 0-.714-.672h-8.673a.694.694 0 0 0-.715.672v42.1a.7.7 0 0 0 .716.673h6.018a.725.725 0 0 0 .627-.357 12.276 12.276 0 0 0 .365-1.941s3.545 3.125 10.258 3.125c7.882 0 12.4-3.719 12.4-16.7s-7.219-14.673-12.1-14.673m-94.927.878h-6.482l-.01-7.973c0-.3-.167-.453-.542-.453h-8.841c-.344 0-.528.141-.528.448v8.24s-4.43.995-4.73 1.075a.676.676 0 0 0-.518.642V22.6a.693.693 0 0 0 .715.672h4.533v12.456c0 9.252 6.976 10.161 11.683 10.161a21.035 21.035 0 0 0 5.149-.789.621.621 0 0 0 .406-.6l.007-5.7a.705.705 0 0 0-.717-.672c-.378 0-1.345.143-2.341.143-3.187 0-4.266-1.378-4.266-3.163V23.277h6.488a.694.694 0 0 0 .716-.672v-6.486a.644.644 0 0 0-.208-.473.745.745 0 0 0-.507-.2"/></svg>