<svg xmlns="http://www.w3.org/2000/svg" width="114.92" height="121.14" viewBox="0 0 114.92 121.14"><path fill="#f7df1e" d="M0 0h114.923v121.145H0z"/><path d="M30.217 101.237l8.794-5.611c1.7 3.171 3.24 5.854 6.942 5.854 3.549 0 5.787-1.463 5.787-7.155V55.613h10.8v38.87c0 11.791-6.557 17.159-16.123 17.159-8.639 0-13.654-4.717-16.2-10.409m38.189-1.22l8.793-5.367c2.315 3.985 5.324 6.912 10.646 6.912 4.475 0 7.329-2.359 7.329-5.611 0-3.9-2.931-5.286-7.869-7.562l-2.7-1.221c-7.792-3.5-12.96-7.887-12.96-17.158 0-8.539 6.171-15.045 15.814-15.045 6.866 0 11.8 2.521 15.351 9.108l-8.409 5.693c-1.852-3.5-3.857-4.879-6.942-4.879a4.806 4.806 0 0 0-5.169 4.879c0 3.415 2.006 4.8 6.634 6.913l2.7 1.219c9.18 4.148 14.349 8.376 14.349 17.89 0 10.247-7.637 15.858-17.9 15.858-10.028 0-16.508-5.042-19.671-11.629"/></svg>