<svg xmlns="http://www.w3.org/2000/svg" width="189.55" height="59.51" viewBox="0 0 189.55 59.51"><path fill="#264970" d="M173.814 15.112a1.332 1.332 0 0 0-1.27-.753h-12.425a1.332 1.332 0 0 0-1.269.753l-15.676 40.19a.911.911 0 0 0 .2.96 1.454 1.454 0 0 0 1.074.44h8.554a1.325 1.325 0 0 0 1.277-.772l10.795-29.559a1.3 1.3 0 0 1 1.26-.738 1.23 1.23 0 0 1 1.236.768l5.008 14.017h-6.881a1.321 1.321 0 0 0-1.281.785l-1.931 5.549a.915.915 0 0 0 .221.941 1.458 1.458 0 0 0 1.061.427h11.612l3.017 7.826a1.332 1.332 0 0 0 1.271.757h8.558a1.454 1.454 0 0 0 1.074-.44.912.912 0 0 0 .2-.96l-15.685-40.192"/><path fill="#264970" d="M115.385 22.186h10.354c5.355 0 6.43 1.7 6.43 4.452v4.1c0 3.421-1.622 4.575-6.43 4.575h-10.354zM147 54.926l-11.378-13.267c4.9-1.643 7.382-5.086 7.382-10.234v-5.411c0-8.061-5.206-11.655-16.881-11.655h-20.241a1.225 1.225 0 0 0-1.331 1.076v40.191a1.225 1.225 0 0 0 1.331 1.077h8.172a1.225 1.225 0 0 0 1.331-1.077v-12.6h8.36l11.374 13.219a1.447 1.447 0 0 0 1.093.462h9.774a1.38 1.38 0 0 0 1.21-.627.918.918 0 0 0-.2-1.15zM94.622 14.359h-8.177a1.225 1.225 0 0 0-1.331 1.076v40.191a1.225 1.225 0 0 0 1.331 1.077h8.172a1.225 1.225 0 0 0 1.332-1.077V15.435a1.225 1.225 0 0 0-1.332-1.076m-19.137 0h-8.271a1.17 1.17 0 0 0-1.264 1.027v31.45c0 3.952-3.726 5.252-6.247 5.355a1.4 1.4 0 0 0-.953.443.863.863 0 0 0-.166.879l2.011 5.288c.164.433.741.711 1.68.711 7.914 0 14.485-5.023 14.485-11.756v-32.37a1.166 1.166 0 0 0-1.268-1.025M11.434 3.395c-2.541 0-4.6 1.661-4.6 3.721s2.058 3.722 4.6 3.722 4.6-1.667 4.6-3.722-2.055-3.721-4.6-3.721m30.214 0c-2.542 0-4.6 1.661-4.6 3.721s2.055 3.722 4.6 3.722 4.6-1.667 4.6-3.722-2.062-3.718-4.6-3.721M26.54 0c-2.541 0-4.6 1.661-4.6 3.721s2.058 3.722 4.6 3.722 4.6-1.667 4.6-3.722S29.083 0 26.54 0m25.979 13.763a1.68 1.68 0 0 0-.876-.239 1.736 1.736 0 0 0-.514.077 83.95 83.95 0 0 1-9.162 2.237 1.731 1.731 0 0 0-1.261.889c-2.1 4.656-7.473 9.09-13.106 13.734a1.633 1.633 0 0 1-1.058.4 1.607 1.607 0 0 1-1.058-.4c-5.633-4.644-11-9.062-13.106-13.719a1.734 1.734 0 0 0-1.26-.889 84.154 84.154 0 0 1-9.168-2.259 1.757 1.757 0 0 0-.515-.077 1.65 1.65 0 0 0-.869.237 1.082 1.082 0 0 0-.559 1.028c.476 3.867 2.369 7.657 5.785 11.624a94.34 94.34 0 0 0 11.447 10.519c7.46 6.152 14.508 11.961 15.126 18.7a1.353 1.353 0 0 0 1.437 1.079h8.766a1.623 1.623 0 0 0 1.044-.362 1.049 1.049 0 0 0 .4-.86c-.276-4.5-2.373-9.015-6.411-13.788a49.85 49.85 0 0 0-2.7-2.928.731.731 0 0 1 .07-1.113l.879-.725a94.367 94.367 0 0 0 11.448-10.522c3.415-3.967 5.307-7.73 5.785-11.6a1.108 1.108 0 0 0-.559-1.042m-35.383 28.4a1.49 1.49 0 0 0-1.023-.354 1.52 1.52 0 0 0-1.189.547c-3.687 4.535-5.591 8.815-5.854 13.117a1.061 1.061 0 0 0 .4.864 1.643 1.643 0 0 0 1.049.363h8.75a1.364 1.364 0 0 0 1.434-1.082 13.656 13.656 0 0 1 2.443-6.335 1.394 1.394 0 0 0-.178-1.768 72.162 72.162 0 0 0-5.836-5.35"/><path fill="#264970" d="M26.551 17.234c2.747 0 4.34-.133 4.9-.133a1.232 1.232 0 0 1 1.325 1.079.975.975 0 0 1-.107.431 19.041 19.041 0 0 1-5.116 6.049 1.614 1.614 0 0 1-1.01.324 1.611 1.611 0 0 1-1.009-.324 19.013 19.013 0 0 1-5.115-6.05.962.962 0 0 1-.107-.43 1.233 1.233 0 0 1 1.327-1.078c.56 0 2.152.133 4.9.133h.018"/></svg>