<svg xmlns="http://www.w3.org/2000/svg" width="446.44" height="134.09" viewBox="0 0 446.44 134.09"><path fill="#8e714e" fill-rule="evenodd" d="M416.154 55.453c-.4.085-.8 1.019-.8 1.528-.08 3.4-.161 12.4-.161 18.513 0 .17.241.51.483.51 1.208.085 4.108.169 6.606.169a16.445 16.445 0 0 0 6.605-1.018c2.9-1.529 4.269-4.841 4.269-8.494 0-8.236-5.478-11.379-13.615-11.379a12.268 12.268 0 0 0-3.384.17zm20.785 37.96c0-8.407-5.881-13.078-16.515-13.078a44.456 44.456 0 0 0-4.673.085c-.242.086-.563.256-.563.511 0 6.028-.081 15.626.161 19.362.161 1.613 1.289 3.906 2.659 4.586 1.449.849 4.752 1.019 7.008 1.019 6.364 0 11.923-3.736 11.923-12.483zm-37.218-42.63c.8 0 3.221.254 9.424.254 5.881 0 10.553-.169 16.273-.169 7.008 0 16.675 2.632 16.675 13.672 0 5.435-3.625 9.766-8.378 11.889-.241.085-.241.254 0 .339 6.766 1.784 12.729 6.2 12.729 14.521 0 8.153-4.834 13.333-11.843 16.56-4.27 1.953-9.586 2.632-14.984 2.632-4.109 0-15.145-.509-21.267-.339-.644-.256.564-3.313 1.127-3.822a14.328 14.328 0 0 0 4.109-.68c2.175-.594 2.416-1.274 2.738-4.755.161-2.972.161-13.5.161-20.976 0-10.275.081-17.239 0-20.635-.08-2.632-.966-3.482-2.739-3.992-1.371-.254-3.625-.594-5.479-.848-.4-.425.966-3.313 1.451-3.651zm-46.484 52.82c1.934 1.612 5.721 2.291 9.1 2.291 4.35 0 8.7-.848 12.889-4.84 4.27-4.075 7.25-10.359 7.25-20.379 0-9.6-3.464-17.41-10.553-21.994-4.028-2.634-9.184-3.736-15.145-3.736a11.5 11.5 0 0 0-4.511.594 2.516 2.516 0 0 0-.806 1.358c-.161 1.7-.161 14.776-.161 22.42 0 7.9 0 18.937.161 20.211a5.391 5.391 0 0 0 1.772 4.077zm-18.286-52.821c1.531 0 7.411.255 10.231.255 5.076 0 8.7-.254 18.287-.254 8.056 0 14.823 2.292 19.657 6.623 5.88 5.35 8.943 12.739 8.943 21.74 0 12.823-5.559 20.212-11.118 24.458-5.557 4.331-12.808 6.878-23.12 6.878-5.478 0-14.9-.169-22.718-.255h-.08c-.4-.764.644-3.736 1.289-3.821a12.271 12.271 0 0 0 3.707-.764c1.691-.68 2.014-1.614 2.256-4.756.241-5.86.161-12.908.161-20.891 0-5.689.08-16.814-.081-20.381-.241-2.971-1.449-3.736-3.866-4.246a50 50 0 0 0-5.075-.848c-.323-.6 1.127-3.227 1.529-3.736z"/><path fill="#442d22" fill-rule="evenodd" d="M237.475 106.914a15.545 15.545 0 0 1-5.236-1.443 2.642 2.642 0 0 1-.645-1.359c-.161-2.972-.161-11.464-.161-17.153 0-4.586-.725-8.577-2.578-11.38a10.845 10.845 0 0 0-9.345-5.1c-3.544 0-8.3 2.547-12.245 6.114-.08.085-.725.68-.644-.255 0-.934.161-2.8.242-4.077a2.263 2.263 0 0 0-.564-1.774c-2.578 1.358-9.828 3.142-12.487 3.4-1.933.426-2.416 2.379-.4 3.058h.08a17.439 17.439 0 0 1 4.752 2.209 2.734 2.734 0 0 1 .725 2.378c.08 6.368.08 16.134-.161 21.485-.08 2.123-.644 2.887-2.1 3.226l.162-.085a30.359 30.359 0 0 1-3.384.679c-.484.51-.484 3.227 0 3.822.886 0 5.558-.255 9.426-.255 5.316 0 8.056.255 9.425.255a5.8 5.8 0 0 0 .4-3.822 14.212 14.212 0 0 1-3.706-.594c-1.45-.34-1.853-1.1-1.934-2.887-.16-4.5-.16-14.012-.16-20.466a4.228 4.228 0 0 1 .965-3.143 11.82 11.82 0 0 1 7.493-2.887 8.065 8.065 0 0 1 5.558 1.954 8.525 8.525 0 0 1 2.578 5.349c.4 3.651.242 10.87.242 17.154 0 3.4-.242 4.246-1.449 4.67a14.649 14.649 0 0 1-3.707.764c-.564.6-.4 3.228 0 3.823 2.336 0 5.075-.255 9.1-.255 4.994 0 8.217.255 9.507.255a6.224 6.224 0 0 0 .241-3.652zm22.315-32.438c-4.269 0-6.928 3.481-6.928 8.915 0 5.52 2.336 11.889 8.942 11.889a6.061 6.061 0 0 0 4.188-1.7c1.531-1.528 2.579-4.586 2.579-7.813 0-7.048-3.3-11.294-8.781-11.294zm-.564 37.533a6.654 6.654 0 0 0-3.464.935c-3.384 2.291-4.914 4.5-4.914 7.134a7.667 7.667 0 0 0 2.82 6.113c2.336 2.123 5.558 3.143 9.666 3.143 8.217 0 11.843-4.671 11.843-9.256 0-3.228-1.531-5.351-4.672-6.539-2.256-1.02-6.364-1.529-11.279-1.529zm.564 22.08c-4.914 0-8.459-1.1-11.52-3.567a11.394 11.394 0 0 1-4.27-8.407 6.718 6.718 0 0 1 1.612-4.246 43.3 43.3 0 0 1 7.411-6.284c.161-.085.241-.169.241-.34a.558.558 0 0 0-.322-.423c-3.786-1.529-4.914-3.992-5.237-5.35v-.17c-.079-.51-.241-1.019.484-1.529.564-.424 1.37-.934 2.255-1.528a32.975 32.975 0 0 0 3.706-2.549.643.643 0 0 0 .161-.509.557.557 0 0 0-.323-.424c-5.638-1.954-8.457-6.37-8.457-12.994a13.126 13.126 0 0 1 5.155-10.7 22.9 22.9 0 0 1 11.6-4.161h.242c3.786.085 5.88.934 8.861 2.038a14.214 14.214 0 0 0 5.238.848c3.141 0 4.511-1.019 5.638-2.207a4.821 4.821 0 0 1 .323 1.7 6.674 6.674 0 0 1-1.048 3.906 4.475 4.475 0 0 1-3.541 1.614h-.4a17.1 17.1 0 0 1-2.1-.34l-.321.17c-.08.17 0 .34.08.594l.081.17a32.947 32.947 0 0 1 .483 3.651c0 6.963-2.658 10.019-5.478 12.313a18.007 18.007 0 0 1-9.425 3.822 9.632 9.632 0 0 0-1.128.085c-.4 0-.966.086-1.048.086h-.08c-.644.169-2.255 1.019-2.255 2.462 0 1.274.725 2.8 4.189 3.058.725.085 1.449.085 2.256.17 4.592.339 10.311.764 12.97 1.7a9.5 9.5 0 0 1 6.042 9.086c0 6.285-4.269 12.144-11.358 15.795a24.8 24.8 0 0 1-10.715 2.463zM305.708 74.9a7.2 7.2 0 0 0-4.35 1.273c-3.141 2.038-4.752 6.115-4.752 12.059 0 11.126 5.316 18.938 12.889 18.938a7.942 7.942 0 0 0 5.558-2.038c2.336-2.039 3.545-6.115 3.545-11.8 0-11.039-5.237-18.428-12.889-18.428zm1.451 36.345c-13.7 0-18.609-10.615-18.609-20.551 0-6.963 2.658-12.314 7.975-16.135a23.342 23.342 0 0 1 12.326-3.821c10.472 0 17.8 7.9 17.8 19.277 0 7.727-2.9 13.841-8.459 17.578a21.548 21.548 0 0 1-11.037 3.651zm-143.56-36.346a7.2 7.2 0 0 0-4.351 1.274c-3.137 2.038-4.749 6.114-4.749 12.059 0 11.126 5.316 18.938 12.889 18.938a7.945 7.945 0 0 0 5.559-2.038c2.335-2.039 3.544-6.115 3.544-11.8.001-11.045-5.154-18.433-12.892-18.433zm1.45 36.346c-13.7 0-18.609-10.615-18.609-20.551 0-6.963 2.658-12.314 7.975-16.135a23.342 23.342 0 0 1 12.326-3.821c10.473 0 17.8 7.9 17.8 19.277 0 7.727-2.9 13.841-8.459 17.578a21.053 21.053 0 0 1-11.036 3.651zm-92.079-.849a3.806 3.806 0 0 1-.242-1.953 3 3 0 0 1 .242-1.274 28.385 28.385 0 0 0 3.544-.765c1.612-.425 2.256-1.358 2.336-3.481.243-5.1.243-14.777.161-21.486v-.17a2.647 2.647 0 0 0-.886-2.378 17.74 17.74 0 0 0-4.826-2.207c-.725-.253-1.208-.678-1.128-1.187 0-.51.484-1.1 1.531-1.275a56.5 56.5 0 0 0 12.325-3.312 2.174 2.174 0 0 1 .4 1.359l-.08.933a36.832 36.832 0 0 0-.161 3.143.636.636 0 0 0 .644.594 1.1 1.1 0 0 0 .484-.17c5.156-4.246 9.828-5.774 12.244-5.774 3.948 0 7.01 1.954 9.346 6.029a.6.6 0 0 0 .564.34.565.565 0 0 0 .483-.255c4.753-3.822 9.507-6.115 12.648-6.115 7.492 0 11.923 5.86 11.923 15.8 0 2.8 0 6.454-.08 9.766 0 2.971-.08 5.689-.08 7.643a2.667 2.667 0 0 0 1.449 2.037 16.483 16.483 0 0 0 4.673 1.189h.08a7.143 7.143 0 0 1-.483 3.227 18.788 18.788 0 0 1-2.014-.085q-3.059-.168-6.123-.17c-4.994 0-7.572.085-10.071.255a8.726 8.726 0 0 1 0-3.227 23.945 23.945 0 0 0 3.062-.764c1.611-.51 2.014-1.275 2.1-3.482 0-1.613.321-15.371-.162-18.683-.483-3.4-2.9-7.388-8.217-7.388a13.846 13.846 0 0 0-8.216 3.311 1.561 1.561 0 0 0-.323.849v.086a41.2 41.2 0 0 1 .323 6.963v5.52c0 3.822-.081 7.389 0 10.105a2.458 2.458 0 0 0 1.934 2.634c.484.084.8.169 1.208.254.725.17 1.45.34 2.578.594a4.823 4.823 0 0 1-.08 2.378 1.673 1.673 0 0 1-.323.849 282.41 282.41 0 0 0-9.666-.17c-1.208 0-3.3.086-5.075.086-1.451 0-2.82.085-3.625.085a4.7 4.7 0 0 1-.243-1.7 2.758 2.758 0 0 1 .323-1.529 5.187 5.187 0 0 1 1.128-.169c.965-.17 1.772-.34 2.577-.51 1.371-.424 1.853-1.189 1.934-3.057.242-4.246.484-16.389-.08-19.447-.966-4.925-3.625-7.388-7.9-7.388a14.337 14.337 0 0 0-8.216 3.313 2.822 2.822 0 0 0-.725 1.952v5.011c0 6.114 0 13.757.08 17.069a2.6 2.6 0 0 0 2.256 2.632 16.091 16.091 0 0 0 1.853.34l1.449.254a7.492 7.492 0 0 1-.241 3.227c-.806 0-1.772-.085-2.9-.085-1.691-.086-3.866-.17-6.283-.17-2.82 0-4.834.085-6.445.17a18.474 18.474 0 0 0-2.984-.171z"/><path fill="#fff" fill-rule="evenodd" d="M30.6 130.774l-3.3-1.19s.4-17.748-5.639-19.021c-4.027-4.926.646-208.9 15.146-.68 0 0-5 2.632-5.881 7.134-.967 4.416-.323 13.757-.323 13.757z"/><path fill="#a6a385" fill-rule="evenodd" d="M30.6 130.774l-3.3-1.19s.4-17.748-5.639-19.021c-4.027-4.926.646-208.9 15.146-.68 0 0-5 2.632-5.881 7.134-.967 4.416-.323 13.757-.323 13.757z"/><path fill="#fff" fill-rule="evenodd" d="M32.373 113.623s28.922-20.042 22.155-61.738c-6.526-30.318-21.913-40.251-23.6-44.073A43.837 43.837 0 0 1 27.298.34l1.209 84.327c0 .086-2.5 25.816 3.867 28.96"/><path fill="#499d4a" fill-rule="evenodd" d="M32.373 113.623s28.922-20.042 22.155-61.738c-6.526-30.318-21.913-40.251-23.6-44.073A43.837 43.837 0 0 1 27.298.34l1.209 84.327c0 .086-2.5 25.816 3.867 28.96"/><path fill="#fff" fill-rule="evenodd" d="M25.607 114.727S-1.543 95.197.069 60.803C1.6 26.411 20.772 9.512 24.478 6.454c2.422-2.717 2.498-3.737 2.659-6.457 1.692 3.822 1.37 57.152 1.611 63.435.724 24.205-1.289 46.71-3.141 51.295z"/><path fill="#58aa50" fill-rule="evenodd" d="M25.607 114.727S-1.543 95.197.069 60.803C1.6 26.411 20.772 9.512 24.478 6.454c2.422-2.717 2.498-3.737 2.659-6.457 1.692 3.822 1.37 57.152 1.611 63.435.724 24.205-1.289 46.71-3.141 51.295z"/></svg>