<svg xmlns="http://www.w3.org/2000/svg" width="285.62" height="85.02" viewBox="0 0 285.62 85.02"><g fill="#83cd29"><path d="M262.74 30.176a3.8 3.8 0 0 0-1.97.508l-18.936 11.528a4.257 4.257 0 0 0-1.97 3.646v23.013a4.259 4.259 0 0 0 1.97 3.644l4.945 3.009a7.756 7.756 0 0 0 4.382 1.229c3.557 0 5.588-2.275 5.588-6.23V47.807a.553.553 0 0 0-.563-.551h-2.372a.55.55 0 0 0-.563.551v22.717c0 1.752-1.732 3.515-4.543 2.034l-5.146-3.179a.6.6 0 0 1-.322-.508V45.857a.677.677 0 0 1 .322-.551l18.9-11.485a.533.533 0 0 1 .563 0l18.9 11.485a.682.682 0 0 1 .322.551v23.015a.649.649 0 0 1-.282.551l-18.937 11.485a.556.556 0 0 1-.563 0l-4.865-3.051a.483.483 0 0 0-.482 0 12.22 12.22 0 0 1-2.855 1.356c-.31.114-.781.292.161.848l6.352 3.941a3.8 3.8 0 0 0 3.94 0l18.937-11.486a4.264 4.264 0 0 0 1.97-3.644V45.858a4.257 4.257 0 0 0-1.97-3.644l-18.942-11.528a3.781 3.781 0 0 0-1.97-.509z"/><path d="M267.807 46.62c-5.392 0-8.6 2.419-8.6 6.442 0 4.364 3.187 5.563 8.363 6.1 6.191.639 6.674 1.6 6.674 2.882 0 2.228-1.685 3.179-5.668 3.179-5.005 0-6.1-1.317-6.473-3.941a.558.558 0 0 0-.523-.509h-2.453a.591.591 0 0 0-.563.594c0 3.359 1.733 7.332 10.011 7.332 5.992 0 9.448-2.479 9.448-6.824 0-4.306-2.792-5.462-8.6-6.272-5.873-.819-6.433-1.221-6.433-2.67 0-1.2.475-2.8 4.825-2.8 3.886 0 5.322.884 5.91 3.646a.559.559 0 0 0 .522.466h2.445a.583.583 0 0 0 .4-.212.572.572 0 0 0 .161-.424c-.38-4.756-3.389-6.993-9.449-6.993z"/></g><path fill="#404137" d="M151.413 0a1.171 1.171 0 0 0-.6.169 1.3 1.3 0 0 0-.6 1.1v32.424a.869.869 0 0 1-.4.763.8.8 0 0 1-.844 0l-5.026-3.051a2.3 2.3 0 0 0-2.412 0L121.46 43.611a2.636 2.636 0 0 0-1.206 2.247v24.411a2.565 2.565 0 0 0 1.206 2.2l20.062 12.206a2.3 2.3 0 0 0 2.412 0l20.062-12.206a2.566 2.566 0 0 0 1.206-2.2V9.409a2.61 2.61 0 0 0-1.246-2.247L152.016.126a1.122 1.122 0 0 0-.603-.126zM22.354 30.472a2.175 2.175 0 0 0-1.085.3L1.206 42.975A2.561 2.561 0 0 0 0 45.175l.043 32.766a1.264 1.264 0 0 0 .6 1.1 1.12 1.12 0 0 0 1.206 0l11.9-7.2a2.615 2.615 0 0 0 1.246-2.2v-15.3a2.558 2.558 0 0 1 1.206-2.2l5.065-3.094a2.314 2.314 0 0 1 2.412 0l5.065 3.082a2.559 2.559 0 0 1 1.206 2.2v15.3a2.618 2.618 0 0 0 1.246 2.2l11.9 7.205a1.12 1.12 0 0 0 1.206 0 1.289 1.289 0 0 0 .6-1.1l.039-32.762a2.549 2.549 0 0 0-1.206-2.2L23.681 30.769a2.163 2.163 0 0 0-1.085-.3zm180.28.3a2.312 2.312 0 0 0-1.206.339l-20.062 12.206a2.565 2.565 0 0 0-1.206 2.2V69.93a2.578 2.578 0 0 0 1.246 2.2l19.9 11.952a2.306 2.306 0 0 0 2.372.041l12.065-7.073a1.3 1.3 0 0 0 .643-1.1 1.266 1.266 0 0 0-.6-1.1l-20.188-12.21a1.383 1.383 0 0 1-.643-1.145v-7.628a1.318 1.318 0 0 1 .643-1.1l6.272-3.815a1.151 1.151 0 0 1 1.206 0l6.271 3.815a1.282 1.282 0 0 1 .6 1.1v6.018a1.281 1.281 0 0 0 .6 1.1 1.142 1.142 0 0 0 1.206 0l12.029-7.368a2.576 2.576 0 0 0 1.206-2.2v-5.9a2.572 2.572 0 0 0-1.206-2.2l-19.939-12.209a2.3 2.3 0 0 0-1.206-.339zm-59.991 18.221a.646.646 0 0 1 .322.084l6.875 4.2a.663.663 0 0 1 .322.551v8.389a.659.659 0 0 1-.322.551l-6.875 4.2a.581.581 0 0 1-.6 0l-6.875-4.2a.661.661 0 0 1-.322-.551v-8.393a.663.663 0 0 1 .322-.551l6.875-4.2a.51.51 0 0 1 .282-.084z"/><path fill="#83cd29" d="M82.622 30.64a2.31 2.31 0 0 0-1.206.339L61.353 43.145a2.634 2.634 0 0 0-1.206 2.246v24.412a2.565 2.565 0 0 0 1.206 2.2l20.062 12.206a2.3 2.3 0 0 0 2.412 0l20.062-12.206a2.566 2.566 0 0 0 1.206-2.2V45.391a2.634 2.634 0 0 0-1.206-2.246L83.828 30.981a2.307 2.307 0 0 0-1.206-.341zm119.972 21.787a.47.47 0 0 0-.241.042l-3.86 2.373a.5.5 0 0 0-.241.424v4.662a.5.5 0 0 0 .241.424l3.86 2.331a.4.4 0 0 0 .442 0l3.858-2.331a.5.5 0 0 0 .241-.424v-4.662a.5.5 0 0 0-.241-.426l-3.86-2.374a.32.32 0 0 0-.2-.041z"/></svg>