<svg xmlns="http://www.w3.org/2000/svg" width="207.7" height="194.22" viewBox="0 0 207.7 194.22"><g fill="#61dafb" transform="translate(21.246)"><path d="M156.77 65.983c0-9.814-13.006-19.115-32.945-24.883 4.6-19.206 2.556-34.486-6.455-39.378a14.658 14.658 0 0 0-7.158-1.691v6.734a7.753 7.753 0 0 1 3.643.785c4.346 2.355 6.231 11.324 4.761 22.86a88.336 88.336 0 0 1-1.63 8.878A163.1 163.1 0 0 0 96.695 36 149.578 149.578 0 0 0 83.4 20.9c10.417-9.15 20.2-14.163 26.842-14.163V0c-8.788 0-20.291 5.919-31.923 16.186C66.689 5.979 55.186.121 46.4.121v6.734c6.615 0 16.425 4.983 26.842 14.072A144.768 144.768 0 0 0 60.043 36a157.145 157.145 0 0 0-20.323 3.322 86.59 86.59 0 0 1-1.662-8.757c-1.5-11.536.352-20.5 4.665-22.89a7.45 7.45 0 0 1 3.675-.785V.151a14.91 14.91 0 0 0-7.222 1.691c-8.979 4.892-10.992 20.142-6.359 39.288C12.941 46.93 0 56.199 0 65.983c0 9.814 13.006 19.115 32.945 24.883-4.6 19.206-2.556 34.486 6.455 39.378a14.7 14.7 0 0 0 7.19 1.691c8.788 0 20.291-5.919 31.923-16.186 11.631 10.207 23.135 16.065 31.923 16.065a14.909 14.909 0 0 0 7.222-1.691c5.693-3.1 8.586-10.366 8.761-20.233a76.819 76.819 0 0 0-2.4-19.055c19.812-5.768 32.754-15.069 32.754-24.853zm-41.6-20.142c-1.182 3.9-2.652 7.912-4.314 11.928a140.473 140.473 0 0 0-4.186-7.248c-1.47-2.416-3.036-4.771-4.6-7.066 4.538.634 8.915 1.419 13.1 2.386zM100.529 78c-2.492 4.077-5.049 7.942-7.7 11.536-4.761.393-9.586.6-14.444.6-4.825 0-9.65-.211-14.38-.574a165.69 165.69 0 0 1-7.733-11.475 154.488 154.488 0 0 1-6.647-12.019c1.981-4.047 4.218-8.093 6.615-12.049 2.492-4.077 5.049-7.942 7.7-11.536 4.761-.393 9.586-.6 14.443-.6 4.825 0 9.65.211 14.38.574q3.978 5.39 7.733 11.475a154.488 154.488 0 0 1 6.647 12.019A165.625 165.625 0 0 1 100.528 78zm10.321-3.926a124.661 124.661 0 0 1 4.41 12.019 151.23 151.23 0 0 1-13.165 2.416c1.566-2.325 3.132-4.711 4.6-7.157a168.473 168.473 0 0 0 4.154-7.278zm-32.4 32.221a126.858 126.858 0 0 1-8.883-9.663c2.876.121 5.816.211 8.788.211 3 0 5.976-.06 8.883-.211a119.994 119.994 0 0 1-8.789 9.668zM54.675 88.51c-4.538-.634-8.915-1.419-13.1-2.386 1.182-3.9 2.652-7.912 4.314-11.928 1.31 2.416 2.684 4.832 4.186 7.248s3.034 4.771 4.6 7.066zm23.614-62.842a126.852 126.852 0 0 1 8.883 9.663 208.965 208.965 0 0 0-8.788-.211c-3 0-5.976.06-8.883.211a120.009 120.009 0 0 1 8.788-9.663zM54.643 43.455c-1.566 2.325-3.132 4.711-4.6 7.157a167.598 167.598 0 0 0-4.154 7.248 124.667 124.667 0 0 1-4.41-12.019 160.863 160.863 0 0 1 13.164-2.386zM25.724 81.263c-11.312-4.56-18.63-10.539-18.63-15.28s7.318-10.751 18.63-15.28c2.748-1.117 5.752-2.114 8.851-3.05a140.035 140.035 0 0 0 7.19 18.391 138.015 138.015 0 0 0-7.094 18.3c-3.164-.936-6.167-1.963-8.947-3.08zm17.192 43.153c-4.346-2.355-6.231-11.324-4.761-22.86a88.328 88.328 0 0 1 1.63-8.878 163.1 163.1 0 0 0 20.291 3.292 149.578 149.578 0 0 0 13.293 15.1c-10.417 9.15-20.2 14.163-26.842 14.163a7.984 7.984 0 0 1-3.611-.815zm75.8-23.011c1.5 11.536-.352 20.5-4.665 22.89a7.45 7.45 0 0 1-3.675.785c-6.615 0-16.425-4.983-26.842-14.072a144.766 144.766 0 0 0 13.2-15.069 157.141 157.141 0 0 0 20.323-3.322 80.353 80.353 0 0 1 1.655 8.788zm12.3-20.142c-2.748 1.117-5.752 2.114-8.851 3.05a140.035 140.035 0 0 0-7.19-18.391 138.006 138.006 0 0 0 7.094-18.3 105.24 105.24 0 0 1 8.979 3.08c11.312 4.56 18.63 10.539 18.63 15.28-.032 4.741-7.35 10.751-18.662 15.28z"/><ellipse cx="14.6" cy="13.8" rx="14.6" ry="13.8" transform="translate(63.75 52.182)"/></g><path fill="#764abc" stroke="#c4bfbf" d="M18.7 193.495l6.888-.84-8.176-15.004c3.252-2.356 5.652-5.376 5.652-9.744 0-7.224-5.376-11.816-22.568-9.576v34.664h6.328v-11.984l5.488-.112zm-11.872-30.3c6.776-.9 9.912 1.512 9.912 6.1a8.408 8.408 0 0 1-3.808 7.056l-6.1.168zm45.92 30.472l.616-5.208c-12.32-.28-16.52-2.128-17.192-7.728l17.976-.5c1.008-9.692-2.744-15.852-10.584-15.852-7.336 0-13.608 6.608-13.608 15.176 0 9.072 4.76 14.28 22.792 14.112zm-10.304-24.192c3.864 0 5.6 2.744 5.768 7.168-3.472.112-9.128.28-12.1.392.284-5.208 2.524-7.56 6.332-7.56zm29.288 19.432c-2.856 0-4.7-1.456-4.7-3.92 0-3.08 2.3-4.928 10.92-4.032.056 2.3.056 4.144.168 5.768a11.682 11.682 0 0 1-6.388 2.184zm7.168 4.256l5.712-.28c-.28-3.864-.5-8.288-.5-13.72 0-10.864-4.2-14.336-21-14.616l-.616 5.264c11.984.392 15.064 1.68 15.4 7.056-11.76-.5-17.024 3.976-17.024 9.576 0 4.536 3.416 7.28 8.4 7.28a12.83 12.83 0 0 0 9.128-3.92c.164 1.344.444 3.136.5 3.36zm13.496-13.668c0 8.624 4.592 15.176 22.008 13.72l.616-5.152c-12.544.728-16.464-2.184-16.464-9.352 0-5.376 2.128-8.568 16.072-8.12l-.392-5.88c-16.688.06-21.84 7.004-21.84 14.784zm52.696 13.948l.672-5.148c-8.512-.168-11.144-1.176-11.144-5.544v-12.88h10.528v-4.76H134.62v-8.064l-6.16.56v7.5h-5.152l-.56 4.76h5.716v13.828c0 7.172 4.084 9.972 16.628 9.748zm11.372-35.168v5.1h11.42v17.86c0 6.048-1.12 7.28-13.5 6.72v5.6c15.064.336 19.992-3.416 19.992-12.376v-22.9zm49.112 6.552c-14.616-1.008-19.768 3.584-19.768 8.4 0 7 14.9 8.008 14.9 11.984 0 2.184-3.416 3.472-14.5 2.744l-.236 5.32c16.072.728 21.224-3.584 21.224-8.4 0-7-14.952-8.624-14.952-12.376 0-1.96 3.192-3.192 13.552-2.3z"/></svg>