<svg xmlns="http://www.w3.org/2000/svg" width="143.05" height="128.76" viewBox="0 0 143.05 128.76"><path fill="#912626" d="M137.446 99.172c-7.634 4.195-47.181 21.335-55.6 25.962s-13.1 4.583-19.748 1.231-48.736-21.272-56.317-25.092C1.993 99.365 0 97.755 0 96.231V80.989s54.79-12.573 63.635-15.918 11.913-3.466 19.44-.56 52.537 11.468 59.976 14.34v15.027c0 1.507-1.715 3.16-5.6 5.294"/><path fill="#c6302b" d="M137.444 84.02c-7.634 4.193-47.179 21.334-55.6 25.961s-13.1 4.583-19.747 1.231S13.362 89.94 5.782 86.122s-7.739-6.449-.293-9.523 49.3-20.384 58.146-23.732 11.913-3.466 19.44-.558 46.837 19.4 54.276 22.272 7.726 5.243.093 9.437"/><path fill="#912626" d="M137.446 74.509c-7.634 4.2-47.181 21.335-55.6 25.964s-13.1 4.581-19.748 1.229S13.362 80.431 5.781 76.611C1.993 74.702 0 73.093 0 71.57V56.326s54.79-12.573 63.635-15.918 11.913-3.467 19.44-.56 52.537 11.465 59.976 14.338v15.028c0 1.506-1.715 3.159-5.6 5.294"/><path fill="#c6302b" d="M137.444 59.357c-7.634 4.194-47.179 21.334-55.6 25.962s-13.1 4.581-19.747 1.229S13.364 65.273 5.783 61.459s-7.739-6.448-.293-9.523 49.3-20.383 58.145-23.728 11.913-3.466 19.44-.559 46.837 19.4 54.276 22.272 7.726 5.243.093 9.437"/><path fill="#912626" d="M137.446 48.932c-7.634 4.194-47.181 21.335-55.6 25.964s-13.1 4.581-19.748 1.229-48.736-21.272-56.317-25.09C1.993 49.124 0 47.514 0 45.994V30.749s54.79-12.572 63.635-15.917 11.913-3.466 19.44-.56 52.537 11.465 59.976 14.338v15.028c0 1.505-1.715 3.158-5.6 5.293"/><path fill="#c6302b" d="M137.444 33.78c-7.634 4.194-47.179 21.335-55.6 25.962s-13.1 4.581-19.747 1.231S13.364 39.7 5.784 35.881s-7.739-6.448-.293-9.523S54.79 5.976 63.636 2.631s11.913-3.465 19.44-.558 46.837 19.4 54.276 22.273 7.726 5.241.093 9.435"/><path fill="#fff" d="M89.006 18.951l-12.3 1.346-2.752 6.986-4.447-7.8-14.2-1.345 10.6-4.028-3.18-6.184 9.921 4.09 9.353-3.228-2.532 6.395 9.537 3.765M73.22 52.832L50.266 42.796l32.891-5.322-9.937 15.358M41.395 22.833c9.709 0 17.58 3.216 17.58 7.183s-7.871 7.183-17.58 7.183-17.58-3.216-17.58-7.183 7.873-7.183 17.58-7.183"/><path fill="#621b1c" d="M103.547 20.863l19.466 8.109-19.449 8.1-.017-16.209"/><path fill="#9a2928" d="M82.006 29.841l21.536-8.978.017 16.21-2.112.871-19.441-8.1"/></svg>