<svg xmlns="http://www.w3.org/2000/svg" width="826.42" height="194.95" viewBox="0 0 826.42 194.95"><path fill="#89d96d" d="M172.539 70.705A13.293 13.293 0 0 1 192.5 59.198a114.692 114.692 0 0 1 39.411-6.736c37.353 0 69.392 16.684 80.222 40.693-.092 5.684-8.167 8.332-11.389 4.843-8.881-19.284-36.933-33.162-68.833-33.162a103.379 103.379 0 0 0-32.8 5.151 13.3 13.3 0 1 1-26.575.723zm149.357 49.477a13.3 13.3 0 1 0-23.733 8.234c-4.248 6.531-10.851 12.446-19.31 17.2-13.067 7.32-29.735 11.36-46.947 11.36-14.9 0-29.212-2.95-41.391-8.542a63.753 63.753 0 0 1-20.188-14.047c-3.391-1.975-11.23 4.325-8.388 9.127 15.36 15.976 41.412 25.836 69.967 25.836 19.295 0 38.118-4.6 53-12.949 10.907-6.12 19.372-14.047 24.7-22.963a13.308 13.308 0 0 0 12.29-13.256z"/><path fill="#999" d="M65.705 145.135c-12.128-15.724-19-37.913-19-61.871 0-21.8 5.751-42.381 16.191-57.946C73.842 8.988 88.648 0 104.582 0c14.524 0 28.37 7.654 39 21.547 10.03 13.123 16.555 31.023 18.366 50.41a128.167 128.167 0 0 0-13.292-6.377c-5.146-30.818-23.286-53.211-44.069-53.211-11.682 0-22.84 7.044-31.418 19.839-9.09 13.549-14.097 31.684-14.097 51.061 0 21.3 6.295 41.524 16.981 55.017a13.3 13.3 0 1 1-10.348 6.849zm94.618-65.57c-21.711-12.538-45.936-17.515-65.986-14.016a13.3 13.3 0 1 0 3.76 11.887c16.873-2.493 37.359 2.052 56.038 12.841 22.814 13.169 38.949 33.614 42.1 52.57a82.393 82.393 0 0 0 12.877 4.14c-1.211-24.625-20.105-50.867-48.794-67.422zm3.278 102.5c-11.974 1.524-25.559-.38-38.918-5.377a127.3 127.3 0 0 1-12.169 8.316c14.19 6.515 29.058 9.937 42.848 9.937a77.838 77.838 0 0 0 9.809-.605c16.514-2.1 29.6-9.547 37.128-21.06a114.289 114.289 0 0 1-12.569-3.822c-5.793 6.76-14.868 11.183-26.129 12.614zm-13.241-48.594a13.3 13.3 0 1 0-11.035-5.669 73.276 73.276 0 0 1-10.969 17.976A101.8 101.8 0 0 1 100.54 169.1c-15.191 8.778-31.551 13.487-46.6 13.482a70.01 70.01 0 0 1-4.669-.154c-15.37-1.031-27.047-7.172-32.89-17.284-10.353-17.935-.031-44.91 24.04-64.749a127.177 127.177 0 0 1-1.077-13.308l-.682-.949c-15.677 11.27-27.733 25.82-33.956 40.954-6.592 16.037-6.249 31.746.966 44.233 7.967 13.8 23.158 22.127 42.771 23.445q2.7.177 5.459.18c17.212 0 35.758-5.284 52.821-15.139 20.342-11.738 35.958-28.5 43.638-46.337z"/><path fill="#89d96d" stroke="#c4bfbf" d="M381.962 134.681l10.862-1.325-12.893-23.667c5.122-3.708 8.919-8.477 8.919-15.365 0-11.392-8.478-18.633-35.588-15.1v54.657h9.978v-18.893l8.655-.177zM363.24 86.906c10.685-1.413 15.63 2.384 15.63 9.626a13.259 13.259 0 0 1-6 11.127l-9.63.264zm72.413 48.039l.971-8.213c-19.427-.441-26.05-3.351-27.11-12.186l28.347-.795c1.59-15.277-4.327-24.991-16.69-24.991-11.569.001-21.459 10.421-21.459 23.932 0 14.306 7.506 22.518 35.941 22.253zm-16.249-38.148c6.093 0 8.831 4.327 9.1 11.3-5.475.177-14.394.442-19.074.618.437-8.21 3.97-11.918 9.974-11.918zm48.3 30.2c-6.093 0-10.42-4.769-10.42-15.189 0-9.714 4.68-14.659 11.392-14.659a21 21 0 0 1 6.27 1.148c0 10.6.088 19.163.265 25.962a11.855 11.855 0 0 1-7.502 2.739zm8.566 7.153l9.1-.53c-.442-9.714-.618-23.225-.618-43.8V71.099l-9.8.883v16.867a15.632 15.632 0 0 0-2.031-.088c-13.953 0-25.344 9.272-25.344 25.521 0 13.07 6.8 20.752 16.072 20.752a17.318 17.318 0 0 0 12.1-5.3zm48.922-.088l9.1-.442c-.53-10.067-.706-23.931-.706-43.712h-9.8c0 14.218.088 25.609.265 33.734a15.2 15.2 0 0 1-8.831 3c-4.5 0-7.33-2.473-7.33-10.244V89.644l-9.8.618v29.583c0 10.774 4.857 15.189 12.54 15.189 6.093 0 10.509-2.826 14.041-5.917zm49.806 0l11.127-.442-15.008-21.723 15.012-21.989h-10.42L565.2 106.245l-11.038-16.6-10.95.53 15.1 21.724-15.1 21.982h10.42l10.6-16.249zm52.631-30.643h-28.253v8.389h27.552zm16.955 21.989v9.1c26.4 1.06 35.853-8.036 35.853-16.69 0-13.07-25.521-16.69-25.521-24.9 0-3.974 4.415-6.358 22.165-5.122l-.53-9.1c-22.783-1.236-32.144 7.418-32.144 15.63 0 12.628 25.521 15.807 25.521 24.726.005 4.59-6.706 7.769-25.339 6.356zm63.856 2.031c-4.5 0-7.418-2.3-7.418-6.182 0-4.857 3.621-7.771 17.22-6.358.088 3.621.088 6.535.265 9.1a18.422 18.422 0 0 1-10.067 3.44zm11.3 6.711l9.007-.442a291.393 291.393 0 0 1-.795-21.635c0-17.132-6.623-22.607-33.115-23.048l-.971 8.3c18.9.618 23.755 2.649 24.285 11.127-18.545-.795-26.846 6.27-26.846 15.1 0 7.153 5.387 11.48 13.246 11.48a20.233 20.233 0 0 0 14.389-6.18c.269 2.12.711 4.945.8 5.299zm25.7 15.189c25.079-1.236 31.084-11.3 31.084-27.375 0-7.153-.088-26.139-.265-31a46.1 46.1 0 0 0-13.246-2.119c-12.981 0-23.843 8.919-23.843 22.872 0 11.3 6.976 18.28 16.16 18.28a18.8 18.8 0 0 0 11.3-3.709c-.265 11.127-2.561 12.628-22.077 14.218zm13.684-27.022c-5.74 0-10.244-4.15-10.244-12.893 0-8.124 4.327-12.275 10.6-12.275a26.231 26.231 0 0 1 7.153 1.148v22.166a17.441 17.441 0 0 1-7.509 1.854zm46.45 5.122c-4.5 0-7.418-2.3-7.418-6.182 0-4.857 3.621-7.771 17.22-6.358.088 3.621.088 6.535.265 9.1a18.422 18.422 0 0 1-10.067 3.44zm11.3 6.711l9.007-.442a291.393 291.393 0 0 1-.795-21.635c0-17.132-6.623-22.607-33.115-23.048l-.971 8.3c18.9.618 23.755 2.649 24.285 11.127-18.545-.794-26.845 6.271-26.845 15.102 0 7.153 5.387 11.48 13.246 11.48a20.233 20.233 0 0 0 14.394-6.182c.268 2.12.709 4.945.797 5.299z"/></svg>