<svg xmlns="http://www.w3.org/2000/svg" width="297.46" height="106.27" viewBox="0 0 297.46 106.27"><g fill="#764abc"><path d="M77.559 74.215A8 8 0 0 0 76.7 58.26h-.285a7.969 7.969 0 0 0-7.692 8.262 8.18 8.18 0 0 0 2.279 5.271c-4.843 9.544-12.25 16.524-23.36 22.364a38.52 38.52 0 0 1-23.218 4.416c-6.41-.855-11.4-3.7-14.53-8.4-4.558-6.98-4.985-14.53-1.139-22.079a33.53 33.53 0 0 1 9.686-11.4c-.57-1.852-1.425-4.985-1.852-7.264C-4.06 64.386-1.923 84.613 4.344 94.157c4.7 7.123 14.244 11.538 24.785 11.538a35.037 35.037 0 0 0 8.546-1c18.233-3.558 32.05-14.384 39.884-30.48zm25.07-17.663C91.8 43.873 75.849 36.894 57.617 36.894h-2.279a7.828 7.828 0 0 0-6.98-4.274h-.285a7.98 7.98 0 0 0 .285 15.954h.285a8.024 8.024 0 0 0 6.98-4.843h2.564a54.289 54.289 0 0 1 30.34 9.259 38.159 38.159 0 0 1 15.1 18.233c2.421 5.983 2.279 11.823-.285 16.809-3.988 7.549-10.683 11.681-19.514 11.681a36.432 36.432 0 0 1-13.959-2.992c-1.567 1.425-4.416 3.7-6.41 5.128a43.975 43.975 0 0 0 18.375 4.416c13.674 0 23.788-7.55 27.634-15.1 4.131-8.262 3.846-22.507-6.837-34.614zM30.268 76.636a8 8 0 0 0 7.977 7.692h.285a7.979 7.979 0 0 0-.285-15.954h-.285a2.427 2.427 0 0 0-1 .142 52.191 52.191 0 0 1-7.407-31.623 38.211 38.211 0 0 1 8.4-22.079c4.131-5.271 12.107-7.835 17.52-7.977 15.1-.285 21.508 18.518 21.936 26.068 1.852.427 4.985 1.425 7.122 2.137C82.829 11.966 68.585 0 54.911 0c-12.82 0-24.643 9.259-29.344 22.934-6.552 18.233-2.279 35.754 5.7 49.571a6.4 6.4 0 0 0-1 4.131z"/><path stroke="#c4bfbf" d="M153.172 81.558l7.628-.93-9.054-16.616c3.6-2.6 6.262-5.952 6.262-10.788 0-8-5.952-13.082-24.986-10.6V81h7.006V67.732l6.076-.124zm-13.144-33.542C147.53 47.024 151 49.69 151 54.774a9.309 9.309 0 0 1-4.216 7.812l-6.758.186zm50.84 33.728l.682-5.766c-13.64-.31-18.29-2.356-19.034-8.556l19.9-.558c1.118-10.726-3.036-17.546-11.716-17.546-8.122 0-15.066 7.316-15.066 16.8 0 10.046 5.266 15.812 25.234 15.626zM179.46 54.96c4.278 0 6.2 3.038 6.386 7.936-3.844.124-10.106.31-13.392.434.31-5.766 2.79-8.37 7.006-8.37zm33.914 21.2c-4.278 0-7.316-3.348-7.316-10.664 0-6.82 3.286-10.292 8-10.292a14.747 14.747 0 0 1 4.4.806c0 7.44.062 13.454.186 18.228a8.323 8.323 0 0 1-5.27 1.926zm6.014 5.026l6.386-.372c-.31-6.82-.434-16.306-.434-30.752V36.918l-6.882.62V49.38a10.975 10.975 0 0 0-1.426-.062c-9.8 0-17.794 6.51-17.794 17.918 0 9.176 4.774 14.57 11.284 14.57a12.159 12.159 0 0 0 8.494-3.72zm34.348-.062l6.386-.31c-.372-7.068-.5-16.8-.5-30.69h-6.882c0 9.982.062 17.98.186 23.684a10.673 10.673 0 0 1-6.2 2.108c-3.162 0-5.146-1.736-5.146-7.192V49.938l-6.882.434v20.77c0 7.564 3.41 10.664 8.8 10.664 4.278 0 7.378-1.984 9.858-4.154zm34.968 0l7.812-.31-10.54-15.252 10.54-15.438H289.2l-7.378 11.47-7.75-11.656-7.688.372 10.6 15.252L266.384 81h7.316l7.44-11.408z"/></g></svg>