<svg xmlns="http://www.w3.org/2000/svg" width="155.08" height="122.53" viewBox="0 0 155.08 122.53"><path fill="#cf649a" d="M133.497 70.359a30.615 30.615 0 0 0-14.055 3.449c-1.454-3.033-2.908-5.684-3.15-7.663a22.322 22.322 0 0 1-.273-6.45 53.859 53.859 0 0 1 1.847-6.961c-.031-.287-.334-1.692-3.453-1.724s-5.816.639-6.119 1.5a38.219 38.219 0 0 0-1.3 4.885c-.545 3-6.24 13.635-9.481 19.222a20.242 20.242 0 0 1-2.151-5.62 22.321 22.321 0 0 1-.272-6.45 53.888 53.888 0 0 1 1.848-6.961c-.03-.287-.333-1.692-3.453-1.724s-5.816.639-6.119 1.5-.636 2.906-1.3 4.885c-.636 1.98-8.209 19.733-10.178 24.363-1 2.363-1.878 4.247-2.514 5.524s-.03.1-.091.224l-.848 1.692v.032c-.424.8-.878 1.564-1.091 1.564-.151 0-.454-2.139.061-5.077 1.121-6.163 3.847-15.774 3.817-16.125 0-.16.515-1.852-1.757-2.714a2.67 2.67 0 0 0-3.181.575c-.182 0-.333.511-.333.511s2.454-10.824-4.7-10.824c-4.483 0-10.662 5.141-13.722 9.835-1.939 1.118-6.058 3.48-10.42 6-1.666.958-3.393 1.98-5.028 2.906l-.333-.384c-8.663-9.731-24.687-16.628-24.02-29.72.242-4.758 1.817-17.307 30.776-32.506C66.221 5.67 85.216 9.087 88.516 16.687c4.7 10.857-10.147 31.037-34.8 33.943-9.39 1.118-14.328-2.714-15.57-4.151-1.3-1.5-1.484-1.565-1.969-1.277-.788.447-.3 1.788 0 2.586.727 2.012 3.756 5.588 8.906 7.376 4.513 1.565 15.539 2.427 28.867-3 14.929-6.105 26.591-23.024 23.166-37.17C93.635.593 70.977-4.132 49.561 3.882c-12.753 4.79-26.565 12.262-36.5 22.064C1.247 37.569-.631 47.724.157 51.938c2.759 15.04 22.415 24.843 30.291 32.091-.394.223-.757.447-1.09.639-3.942 2.043-18.933 10.313-22.689 19.062-4.241 9.9.666 17.02 3.938 17.978 10.117 2.97 20.477-2.363 26.081-11.144 5.573-8.781 4.907-20.18 2.332-25.385l-.091-.192 3.09-1.916c2-1.245 3.968-2.395 5.695-3.385a41.641 41.641 0 0 0-2.029 10.857c-.424 5.62 1.757 12.9 4.635 15.774a4.952 4.952 0 0 0 3.726 1.277c3.332 0 4.847-2.906 6.513-6.386 2.06-4.247 3.877-9.164 3.877-9.164s-2.274 13.315 3.936 13.315c2.272 0 4.544-3.1 5.574-4.694v.032s.061-.1.182-.319q.191-.3.363-.606v-.064c.909-1.66 2.938-5.46 5.967-11.751 3.907-8.11 7.664-18.265 7.664-18.265a60.977 60.977 0 0 0 1.484 6.578 64.709 64.709 0 0 0 3.241 7.663 128.94 128.94 0 0 1-1.454 2.108l.03.032a89.85 89.85 0 0 1-2.393 3.193c-3.09 3.9-6.785 8.334-7.27 9.612-.576 1.5-.454 2.618.666 3.512a5.8 5.8 0 0 0 3.817.639 16.29 16.29 0 0 0 5.695-1.373 19.385 19.385 0 0 0 4.907-2.714 11.737 11.737 0 0 0 4.695-10.183 21.366 21.366 0 0 0-1.787-7.184c.273-.415.546-.831.818-1.277a136.929 136.929 0 0 0 8.481-15.487 60.97 60.97 0 0 0 1.484 6.578 47.427 47.427 0 0 0 2.756 6.578c-4.483 3.864-7.3 8.334-8.269 11.272-1.787 5.428-.394 7.887 2.242 8.462a7.712 7.712 0 0 0 4.15-.894 18.463 18.463 0 0 0 5.241-2.848c3.029-2.363 5.937-5.652 5.786-10.09a20.226 20.226 0 0 0-1.3-5.971 28.116 28.116 0 0 1 15.024-1.82c13.479 1.66 16.145 10.537 15.63 14.241a9.5 9.5 0 0 1-4.271 6.386c-.939.607-1.242.831-1.151 1.277.121.671.545.639 1.363.511a10.89 10.89 0 0 0 7.33-9.866c.363-8.782-7.542-18.362-21.567-18.266zM29.539 107.307c-4.453 5.141-10.723 7.089-13.389 5.428-2.878-1.756-1.757-9.324 3.726-14.784a71.667 71.667 0 0 1 10.511-8.27c.636-.415 1.605-1.021 2.756-1.756a3.2 3.2 0 0 1 .3-.192c.212-.128.454-.287.7-.447a21.154 21.154 0 0 1-4.6 20.021zm32.563-23.342c-1.545 3.994-4.817 14.241-6.786 13.667-1.7-.479-2.726-8.238-.334-15.9a36.1 36.1 0 0 1 5.3-10.25c2.454-2.874 5.119-3.832 5.786-2.65.789 1.527-2.997 12.643-3.966 15.133zM88.97 97.504c-.666.352-1.272.607-1.545.415-.212-.128.272-.607.272-.607s3.362-3.8 4.7-5.556c.757-1.021 1.666-2.2 2.635-3.544v.383c0 4.6-4.18 7.663-6.058 8.908zm20.719-4.981c-.485-.383-.424-1.565 1.212-5.269a19.678 19.678 0 0 1 4.6-6.258 8.284 8.284 0 0 1 .454 2.746c-.026 5.747-3.904 7.887-6.267 8.781z"/></svg>