<svg xmlns="http://www.w3.org/2000/svg" width="112.45" height="111.84" viewBox="0 0 112.45 111.84"><path fill="#007acc" d="M0 55.922V0h112.449v111.845H0"/><path fill="#fff" d="M24.654 56.118v4.558h14.618v41.383h10.373V60.676h14.619v-4.474a34.661 34.661 0 0 0-.112-4.614c0-.084-8.912-.112-19.735-.112l-19.679.084v4.586l-.084-.028zm65.7-4.67a13.629 13.629 0 0 1 7.028 4 17.6 17.6 0 0 1 2.7 3.579c0 .168-4.863 3.439-7.815 5.257-.112.084-.562-.391-1.012-1.118a6.434 6.434 0 0 0-5.285-3.132c-3.373-.224-5.622 1.538-5.622 4.474a4.4 4.4 0 0 0 .506 2.125c.759 1.538 2.165 2.461 6.522 4.362 8.04 3.439 11.526 5.7 13.634 8.948a16.215 16.215 0 0 1 1.321 13.617c-1.8 4.67-6.185 7.829-12.454 8.864a35.257 35.257 0 0 1-8.574-.084 21.26 21.26 0 0 1-11.442-5.956 19.977 19.977 0 0 1-2.924-4.306l1.068-.671 4.217-2.433 3.177-1.845.731.979a15.261 15.261 0 0 0 4.217 4.082c3.655 1.873 8.546 1.622 10.964-.559a4.18 4.18 0 0 0 1.49-3.355 4.3 4.3 0 0 0-.843-2.852c-.9-1.23-2.7-2.237-7.759-4.474-5.819-2.461-8.293-4.026-10.6-6.431a15.859 15.859 0 0 1-3.092-5.592 21.3 21.3 0 0 1-.169-7.186c1.209-5.592 5.454-9.507 11.526-10.625a27.392 27.392 0 0 1 8.546.28l-.056.056z"/></svg>