<svg xmlns="http://www.w3.org/2000/svg" width="212.85" height="217.16" viewBox="0 0 212.85 217.16"><path fill="#fff" d="M106.025 0l76.834 41.526v83.052L106.025 166.1l-76.834-41.522V41.526z"/><path fill="#8ed6fb" d="M168.557 120.679l-60.033 31.862v-24.816l37.4-19.305zm4.106-3.489V50.557l-21.967 11.9v42.828zM43.23 120.679l60.029 31.861v-24.815l-37.4-19.305zm-4.106-3.489V50.557l21.967 11.9v42.828zm2.57-70.944l61.565-32.683v23.994l-39.44 20.356-.3.162zm128.4 0l-61.57-32.683v23.994l39.44 20.356.3.162z"/><path fill="#1c78c0" d="M103.08 130.082l-39.64-22.761v-45.1l39.64 23.9v43.961m5.661 0l39.64-22.761v-45.1l-39.64 23.9v43.961M66.124 57l39.794-22.858 39.794 22.857-39.794 24-39.794-24"/><path fill="#52baf0" stroke="#c4bfbf" d="M17.548 206.871h5.6c.9-6.048 2.184-17.3 2.744-27.888h-5.824c-.224 7.392-.448 13.1-.728 20.608h-.168c-.728-2.464-3.416-10.248-4.088-12.264H11.5c-.62 1.96-3.192 9.688-3.92 12.152h-.224c-.336-7.5-.616-13.16-.84-20.5H.524a275.476 275.476 0 0 0 2.688 27.892h5.432l4.368-13.832zm37.016.672l.616-5.208c-12.32-.28-16.52-2.128-17.192-7.728l17.976-.5c1.008-9.692-2.744-15.852-10.584-15.852-7.336 0-13.608 6.608-13.608 15.176 0 9.072 4.76 14.28 22.792 14.112zM44.26 183.351c3.864 0 5.6 2.744 5.768 7.168-3.472.112-9.128.28-12.1.392.284-5.208 2.524-7.56 6.332-7.56zm27.888 24.248c8.064 0 15.288-6.048 15.288-16.072 0-8.12-4.256-13.272-10.136-13.272a10.844 10.844 0 0 0-7.336 3.024v-14.224l-6.216.56v38.472a22.641 22.641 0 0 0 8.4 1.512zm2.24-5.376a13.142 13.142 0 0 1-4.424-.784v-16.408a8.511 8.511 0 0 1 4.816-1.68c3.808 0 6.5 3.248 6.5 9.688 0 6.332-2.636 9.184-6.892 9.184zm30.128 0a10 10 0 0 1-3.64-.672c-.056-7.28-.168-12.432-.224-16.408a8.457 8.457 0 0 1 4.928-1.792c3.752 0 6.5 3.248 6.5 9.688 0 6.16-3.308 9.184-7.564 9.184zm-3.636 13.832v-8.512a12.657 12.657 0 0 0 1.456.056c8.736 0 15.9-5.88 15.9-16.072 0-8.12-4.312-13.272-10.136-13.272a11.11 11.11 0 0 0-7.784 3.472l-.28-2.856-5.712.336c.28 5.544.336 13.44.336 27.832v9.576zm34.268-13.272c-2.856 0-4.7-1.456-4.7-3.92 0-3.08 2.3-4.928 10.92-4.032.056 2.3.056 4.144.168 5.768a11.682 11.682 0 0 1-6.388 2.184zm7.168 4.256l5.712-.28c-.28-3.864-.5-8.288-.5-13.72 0-10.864-4.2-14.336-21-14.616l-.616 5.264c11.984.392 15.064 1.68 15.4 7.056-11.76-.5-17.024 3.976-17.024 9.576 0 4.536 3.416 7.28 8.4 7.28a12.831 12.831 0 0 0 9.128-3.92c.164 1.344.444 3.136.5 3.36zm13.5-13.664c0 8.624 4.592 15.176 22.008 13.72l.616-5.152c-12.544.728-16.464-2.184-16.464-9.352 0-5.376 2.128-8.568 16.072-8.12l-.392-5.88c-16.692.056-21.844 7-21.844 14.78zm49.5 13.888l6.664-.784-9.688-14.336c3.192-4.144 6.16-8.512 8.9-12.824l-6.384-.5a107.269 107.269 0 0 1-7.784 11.592l-3.3.056v-23.412l-6.216.56v39.256h6.216v-11.928l3.3-.112z"/></svg>